<svg width="1280" height="55" viewBox="0 0 1280 55" fill="none" xmlns="http://www.w3.org/2000/svg">
<path d="M16.4352 39.0161C21.255 39.0161 24.8869 37.4391 27.73 34.4761C30.6568 31.5461 31.5654 27.444 31.5654 24.1255C31.5654 23.0951 31.4864 22.1502 31.3284 21.3568H16.4352V25.7815H27.0222C26.7062 28.2704 25.8733 30.0877 24.6143 31.3519C23.0709 32.8893 20.6637 34.5914 16.4352 34.5914C9.9177 34.5914 4.82041 29.337 4.82041 22.8185C4.82041 16.3 9.9177 11.0424 16.4352 11.0424C19.9486 11.0424 22.5208 12.4284 24.4138 14.2062L27.5358 11.0852C24.8869 8.56008 21.3735 6.62099 16.4352 6.62099C7.50518 6.62099 0 13.8868 0 22.8185C0 31.7469 7.50518 39.0161 16.4352 39.0161ZM43.6181 39.0161C49.3827 39.0161 54.084 34.5914 54.084 28.5831C54.084 22.542 49.3827 18.1568 43.6181 18.1568C37.8436 18.1568 33.1424 22.542 33.1424 28.5831C33.1424 34.5914 37.8436 39.0161 43.6181 39.0161ZM43.6181 34.9074C40.4543 34.9074 37.7251 32.3 37.7251 28.5831C37.7251 24.8333 40.4543 22.2687 43.6181 22.2687C46.7753 22.2687 49.5012 24.8333 49.5012 28.5831C49.5012 32.3 46.7753 34.9074 43.6181 34.9074ZM66.4494 39.0161C72.2173 39.0161 76.9185 34.5914 76.9185 28.5831C76.9185 22.542 72.2173 18.1568 66.4494 18.1568C60.6782 18.1568 55.977 22.542 55.977 28.5831C55.977 34.5914 60.6782 39.0161 66.4494 39.0161ZM66.4494 34.9074C63.2889 34.9074 60.5597 32.3 60.5597 28.5831C60.5597 24.8333 63.2889 22.2687 66.4494 22.2687C69.6099 22.2687 72.3358 24.8333 72.3358 28.5831C72.3358 32.3 69.6099 34.9074 66.4494 34.9074ZM88.8889 48.379C94.2584 48.379 98.8082 45.2218 98.8082 37.5148V18.7889H94.4593V20.4877H94.3012C93.2708 19.263 91.2955 18.1568 88.8132 18.1568C83.5951 18.1568 78.8181 22.7395 78.8181 28.6259C78.8181 34.4761 83.5951 39.0161 88.8132 39.0161C91.2955 39.0161 93.2708 37.9099 94.3012 36.6457H94.4593V38.1469C94.4593 42.1403 92.3259 44.2704 88.8889 44.2704C86.0872 44.2704 84.3457 42.2589 83.6313 40.5535L79.6445 42.216C80.7934 44.9848 83.8321 48.379 88.8889 48.379ZM89.2017 34.9074C86.0444 34.9074 83.3942 32.2638 83.3942 28.6259C83.3942 24.9519 86.0444 22.2687 89.2017 22.2687C92.3259 22.2687 94.7753 24.9519 94.7753 28.6259C94.7753 32.2638 92.3259 34.9074 89.2017 34.9074ZM106.548 7.72716H101.965V38.384H106.548V7.72716ZM119.111 39.0161C123.888 39.0161 126.657 36.0959 127.802 34.3938L124.244 32.0267C123.062 33.7584 121.442 34.9074 119.111 34.9074C116.78 34.9074 115.118 33.8407 114.054 31.7469L128 25.9757L127.526 24.7938C126.657 22.463 124.007 18.1568 118.598 18.1568C113.225 18.1568 108.76 22.3872 108.76 28.5831C108.76 34.4333 113.185 39.0161 119.111 39.0161ZM113.304 28.2704C113.185 24.244 116.425 22.1864 118.756 22.1864C120.573 22.1864 122.114 23.0951 122.63 24.3988L113.304 28.2704Z" fill="#6B7280"/>
<g clip-path="url(#clip0_8_5143)">
<path d="M377.177 26.3727V23.7336H373.9V19.632L373.79 19.6672L370.714 20.6047H370.655V23.7102H365.799V21.9758C365.799 21.1789 365.986 20.5578 366.338 20.1477C366.689 19.7375 367.205 19.5324 367.838 19.5324C368.307 19.5324 368.799 19.6496 369.268 19.8605L369.385 19.9074V17.1406L369.338 17.1172C368.893 16.959 368.283 16.877 367.533 16.877C366.584 16.877 365.717 17.0879 364.955 17.5027C364.193 17.9012 363.596 18.4988 363.186 19.2488C362.764 19.9988 362.553 20.866 362.553 21.8152V23.7137H360.279V26.3504H362.564V37.4598H365.834V26.3504H370.694V33.4051C370.694 36.3113 372.06 37.7879 374.772 37.7879C375.217 37.7879 375.686 37.7316 376.155 37.6355C376.641 37.5301 376.975 37.4246 377.163 37.3191L377.209 37.2957V34.6355L377.077 34.7246C376.901 34.8418 376.679 34.9437 376.421 35.0141C376.163 35.0844 375.94 35.1312 375.774 35.1312C375.141 35.1312 374.672 34.9672 374.384 34.6309C374.086 34.2969 373.939 33.7051 373.939 32.873V26.3809H377.196L377.189 26.3645L377.177 26.3727ZM352.93 35.1383C351.743 35.1383 350.806 34.7434 350.141 33.9664C349.482 33.1871 349.145 32.075 349.145 30.6617C349.145 29.2039 349.482 28.0602 350.145 27.268C350.806 26.4805 351.734 26.0797 352.906 26.0797C354.043 26.0797 354.933 26.4617 355.589 27.2164C356.246 27.9758 356.574 29.1078 356.574 30.582C356.574 32.075 356.269 33.2223 355.66 33.9887C355.05 34.7504 354.136 35.1371 352.941 35.1371L352.93 35.1383ZM353.082 23.4031C350.82 23.4031 349.018 24.0664 347.733 25.3766C346.456 26.6891 345.802 28.5008 345.802 30.7672C345.802 32.9234 346.435 34.652 347.692 35.9117C348.946 37.1773 350.654 37.8336 352.763 37.8336C354.957 37.8336 356.724 37.1539 358.004 35.8355C359.293 34.509 359.932 32.7113 359.932 30.5C359.932 28.3133 359.323 26.5672 358.116 25.3203C356.909 24.0617 355.217 23.4266 353.077 23.4266L353.082 23.4031ZM340.514 23.4266C338.968 23.4266 337.697 23.8203 336.718 24.5984C335.743 25.3812 335.241 26.4031 335.241 27.6453C335.241 28.2945 335.351 28.8641 335.564 29.3562C335.775 29.8414 336.104 30.2703 336.542 30.6313C336.975 30.9828 337.643 31.3578 338.534 31.7422C339.284 32.0469 339.835 32.3047 340.191 32.5156C340.543 32.7113 340.791 32.9141 340.918 33.1098C341.058 33.2973 341.129 33.5668 341.129 33.8832C341.129 34.8137 340.439 35.2613 339.019 35.2613C338.489 35.2613 337.887 35.1512 337.229 34.9332C336.564 34.7176 335.948 34.4059 335.392 34.0051L335.252 33.9113V37.052L335.298 37.0754C335.767 37.2863 336.345 37.4738 337.033 37.6145C337.718 37.7668 338.345 37.8371 338.884 37.8371C340.56 37.8371 341.908 37.4387 342.892 36.6605C343.877 35.873 344.38 34.8207 344.38 33.5387C344.38 32.6129 344.111 31.816 343.578 31.1773C343.05 30.5375 342.136 29.9539 340.855 29.4383C339.844 29.0281 339.191 28.6883 338.91 28.4305C338.652 28.1773 338.532 27.8211 338.532 27.3711C338.532 26.9727 338.696 26.6516 339.03 26.3937C339.365 26.1301 339.834 25.9988 340.42 25.9988C340.964 25.9988 341.521 26.0809 342.084 26.2508C342.634 26.4242 343.121 26.6492 343.525 26.9258L343.662 27.0195V24.0195L343.615 23.9961C343.234 23.832 342.74 23.6949 342.139 23.5859C341.541 23.4723 340.998 23.4219 340.527 23.4219L340.514 23.4266ZM326.699 35.1523C325.516 35.1523 324.578 34.7609 323.922 33.9805C323.254 33.207 322.92 32.0937 322.92 30.6758C322.92 29.2227 323.255 28.0742 323.921 27.2855C324.577 26.498 325.507 26.0973 326.675 26.0973C327.811 26.0973 328.714 26.4793 329.364 27.234C330.011 27.9957 330.348 29.1277 330.348 30.602C330.348 32.0926 330.032 33.2387 329.423 34.0062C328.825 34.768 327.911 35.1547 326.704 35.1547L326.699 35.1523ZM326.868 23.4242C324.595 23.4242 322.79 24.0852 321.513 25.3953C320.227 26.7078 319.579 28.5184 319.579 30.7859C319.579 32.9422 320.212 34.6695 321.457 35.9305C322.714 37.1961 324.418 37.8523 326.526 37.8523C328.729 37.8523 330.487 37.1727 331.776 35.8484C333.058 34.5195 333.709 32.7219 333.709 30.5105C333.709 28.3227 333.1 26.5766 331.905 25.3309C330.698 24.0711 329.003 23.4359 326.866 23.4359L326.868 23.4242ZM314.634 26.1406V23.75H311.399V37.4961H314.634V30.4648C314.634 29.2695 314.903 28.2852 315.439 27.541C315.966 26.8004 316.669 26.4395 317.525 26.4395C317.818 26.4395 318.146 26.4863 318.507 26.5801C318.858 26.6738 319.111 26.7676 319.257 26.8848L319.397 26.9785V23.7207L319.346 23.6973C319.041 23.5613 318.619 23.4957 318.08 23.4957C317.271 23.4957 316.545 23.7582 315.921 24.2691C315.371 24.7238 314.976 25.3426 314.673 26.116H314.615L314.644 26.1395L314.634 26.1406ZM305.587 23.4219C304.098 23.4219 302.774 23.7324 301.649 24.3594C300.515 24.9922 299.645 25.8828 299.048 27.0312C298.462 28.168 298.157 29.498 298.157 30.9805C298.157 32.2812 298.452 33.4695 299.024 34.5219C299.603 35.5766 300.419 36.3969 301.45 36.9711C302.474 37.5371 303.665 37.8266 304.982 37.8266C306.52 37.8266 307.83 37.5219 308.884 36.9125L308.931 36.8891V33.9219L308.791 34.0191C308.314 34.3707 307.783 34.6461 307.209 34.8453C306.637 35.0445 306.116 35.1453 305.662 35.1453C304.389 35.1453 303.372 34.7469 302.631 33.9676C301.881 33.1707 301.506 32.0691 301.506 30.6863C301.506 29.2801 301.905 28.1551 302.673 27.3348C303.447 26.491 304.464 26.0691 305.709 26.0691C306.763 26.0691 307.803 26.4324 308.782 27.1355L308.923 27.2293V24.1121L308.884 24.0887C308.515 23.8777 308.014 23.7137 307.384 23.5801C306.768 23.4512 306.161 23.3879 305.582 23.3879L305.587 23.4219ZM295.938 23.716H292.708V37.4738H295.942V23.716H295.938ZM294.344 17.8684C293.812 17.8684 293.348 18.0488 292.966 18.4074C292.584 18.7684 292.389 19.2207 292.389 19.7551C292.389 20.2824 292.585 20.7277 292.963 21.0793C293.338 21.4309 293.807 21.6043 294.346 21.6043C294.885 21.6043 295.354 21.4285 295.735 21.077C296.119 20.7254 296.314 20.2801 296.314 19.7527C296.314 19.2371 296.126 18.7918 295.751 18.4168C295.376 18.0652 294.907 17.8777 294.345 17.8777L294.344 17.8684ZM286.271 22.7176V37.4832H289.575V18.3125H285.005L279.213 32.5602L273.576 18.3102H268.825V37.4961H271.93V22.7363H272.036L277.989 37.4996H280.327L286.186 22.7375H286.298L286.28 22.7305L286.271 22.7176ZM244.001 28.6824H259.212V43.9062H243.978L243.999 28.693L244.001 28.6824ZM227.2 28.6918H242.409V43.9062H227.195L227.2 28.693V28.6918ZM244.002 11.8906H259.213V27.1016H243.993L244.002 11.8859V11.8906ZM227.2 11.8883H242.409V27.1016H227.195L227.2 11.8859V11.8883Z" fill="#6B7280"/>
</g>
<path d="M527.949 25.6535C531.843 26.6003 533.431 28.0704 533.431 30.7284C533.431 33.8733 531.028 35.9057 527.309 35.9057C524.681 35.9057 522.244 34.9718 520.263 33.2035C520.223 33.1672 520.198 33.1165 520.194 33.0621C520.19 33.0077 520.208 32.954 520.243 32.9125L521.993 30.8307C522.011 30.8095 522.033 30.792 522.058 30.7792C522.083 30.7665 522.11 30.7588 522.137 30.7566C522.165 30.7544 522.193 30.7578 522.219 30.7665C522.246 30.7752 522.27 30.789 522.291 30.8072C523.993 32.2809 525.515 32.9089 527.381 32.9089C529.061 32.9089 530.104 32.1815 530.104 31.0125C530.104 29.9569 529.588 29.3671 526.529 28.6626C522.936 27.7934 520.856 26.6691 520.856 23.4906C520.856 20.5269 523.267 18.4569 526.718 18.4569C529.064 18.4569 531.074 19.152 532.857 20.5827C532.943 20.6521 532.961 20.7768 532.896 20.8673L531.335 23.0667C531.319 23.0893 531.298 23.1084 531.274 23.123C531.251 23.1376 531.224 23.1474 531.197 23.1518C531.169 23.1561 531.141 23.155 531.114 23.1485C531.087 23.142 531.061 23.1301 531.039 23.1137C529.54 21.9964 528.111 21.4542 526.67 21.4542C525.183 21.4542 524.183 22.1687 524.183 23.2301C524.183 24.3533 524.754 24.8885 527.949 25.6517L527.949 25.6535ZM541.844 22.5015C540.233 22.5015 538.911 23.1366 537.82 24.4362V22.972C537.82 22.9165 537.798 22.8632 537.759 22.824C537.72 22.7847 537.666 22.7626 537.611 22.7626H534.749C534.694 22.7626 534.641 22.7847 534.601 22.824C534.562 22.8632 534.54 22.9165 534.54 22.972V39.2434C534.54 39.3581 534.634 39.4522 534.749 39.4522H537.611C537.727 39.4522 537.821 39.3581 537.821 39.2429V34.1062C538.912 35.3294 540.234 35.928 541.846 35.928C544.842 35.928 547.874 33.6228 547.874 29.2148C547.874 24.8067 544.84 22.5015 541.844 22.5015ZM544.543 29.2154C544.543 31.4594 543.162 33.0259 541.182 33.0259C539.224 33.0259 537.748 31.3882 537.748 29.2154C537.748 27.0425 539.224 25.4048 541.182 25.4048C543.13 25.4048 544.544 27.0072 544.544 29.2154H544.543ZM555.644 22.5015C551.787 22.5015 548.765 25.4712 548.765 29.2642C548.765 33.0148 551.765 35.9533 555.596 35.9533C559.467 35.9533 562.498 32.993 562.498 29.2154C562.498 25.4506 559.487 22.501 555.644 22.501L555.644 22.5015ZM555.644 33.0489C553.591 33.0489 552.045 31.4006 552.045 29.2148C552.045 27.0202 553.538 25.4277 555.597 25.4277C557.661 25.4277 559.219 27.076 559.219 29.263C559.219 31.4564 557.715 33.0483 555.644 33.0483V33.0489ZM570.735 22.7626C570.851 22.7626 570.945 22.8567 570.945 22.972V25.4318C570.945 25.4593 570.939 25.4865 570.929 25.5119C570.919 25.5373 570.903 25.5604 570.884 25.5798C570.864 25.5993 570.841 25.6147 570.816 25.6252C570.791 25.6357 570.763 25.6412 570.736 25.6412H567.587V31.5576C567.587 32.4926 567.997 32.9089 568.916 32.9089C569.5 32.9121 570.077 32.7728 570.595 32.5032C570.628 32.4873 570.663 32.4798 570.699 32.4815C570.735 32.4832 570.769 32.4939 570.8 32.5128C570.83 32.5316 570.855 32.5579 570.873 32.5891C570.89 32.6204 570.899 32.6556 570.899 32.6913V35.033C570.899 35.1077 570.858 35.1782 570.794 35.2153C569.991 35.6698 569.139 35.8815 568.112 35.8815C565.588 35.8815 564.307 34.5778 564.307 32.0051V25.6418H562.931C562.904 25.6417 562.877 25.6362 562.851 25.6256C562.826 25.6151 562.803 25.5996 562.784 25.5802C562.765 25.5608 562.749 25.5377 562.739 25.5123C562.728 25.487 562.723 25.4598 562.723 25.4324V22.972C562.723 22.8567 562.816 22.7626 562.931 22.7626H564.307V19.5425C564.307 19.4272 564.401 19.3331 564.518 19.3331H567.379C567.495 19.3331 567.589 19.4272 567.589 19.5425V22.7626H570.738H570.735ZM586.598 22.775C586.685 22.775 586.763 22.8279 586.794 22.9102L590.137 31.6334L593.189 22.9149C593.203 22.8738 593.23 22.8381 593.266 22.8129C593.301 22.7876 593.344 22.7739 593.387 22.7738H596.367C596.401 22.7738 596.435 22.7821 596.465 22.7981C596.495 22.8141 596.521 22.8372 596.54 22.8655C596.559 22.8937 596.571 22.9263 596.575 22.9602C596.578 22.9942 596.574 23.0285 596.561 23.0602L591.595 35.8915C590.566 38.5395 589.397 39.5239 587.285 39.5239C586.155 39.5239 585.24 39.2899 584.227 38.7418C584.181 38.7167 584.145 38.6746 584.129 38.6243C584.112 38.5741 584.115 38.5193 584.138 38.4713L585.108 36.3426C585.12 36.3164 585.137 36.2928 585.158 36.2734C585.179 36.254 585.204 36.2391 585.232 36.2297C585.259 36.2209 585.288 36.2178 585.317 36.2205C585.346 36.2232 585.374 36.2317 585.399 36.2455C585.942 36.5425 586.473 36.6925 586.977 36.6925C587.601 36.6925 588.058 36.4878 588.522 35.4564L584.429 25.6418H581.757V35.4593C581.757 35.5752 581.663 35.6693 581.547 35.6693H578.685C578.658 35.6693 578.631 35.6638 578.605 35.6533C578.58 35.6427 578.557 35.6272 578.537 35.6077C578.518 35.5882 578.502 35.5651 578.492 35.5396C578.481 35.5141 578.476 35.4869 578.476 35.4593V25.6418H577.101C577.046 25.6413 576.992 25.619 576.953 25.5798C576.914 25.5405 576.892 25.4874 576.891 25.4318V22.9602C576.891 22.8444 576.985 22.7503 577.101 22.7503H578.475V22.1446C578.475 19.3302 579.873 17.8412 582.516 17.8412C583.603 17.8412 584.328 18.0147 584.895 18.1823C584.985 18.2099 585.044 18.2917 585.044 18.3834V20.7944C585.044 20.8278 585.037 20.8607 585.022 20.8905C585.007 20.9203 584.985 20.9461 584.958 20.9657C584.931 20.9853 584.9 20.9981 584.867 21.0031C584.834 21.0081 584.8 21.0051 584.769 20.9944C584.232 20.8156 583.753 20.6968 583.156 20.6968C582.157 20.6968 581.71 21.2161 581.71 22.3798V22.775H586.598H586.598ZM575.348 22.7626C575.463 22.7626 575.557 22.8567 575.557 22.972V35.4587C575.557 35.574 575.463 35.6681 575.347 35.6681H572.485C572.429 35.6681 572.376 35.646 572.337 35.6068C572.297 35.5676 572.275 35.5143 572.275 35.4587V22.972C572.275 22.8567 572.369 22.7626 572.484 22.7626H575.346H575.348ZM573.931 17.0773C574.475 17.0773 574.997 17.2936 575.382 17.6784C575.767 18.0633 575.983 18.5853 575.983 19.1296C575.983 19.6739 575.767 20.196 575.382 20.5808C574.997 20.9657 574.475 21.1819 573.931 21.1819C573.387 21.1819 572.865 20.9657 572.48 20.5808C572.095 20.196 571.879 19.6739 571.879 19.1296C571.879 18.5853 572.095 18.0633 572.48 17.6784C572.865 17.2936 573.387 17.0773 573.931 17.0773ZM599.004 26.7767C598.74 26.7777 598.477 26.7263 598.232 26.6254C597.988 26.5246 597.765 26.3763 597.578 26.189C597.391 26.0018 597.242 25.7794 597.142 25.5346C597.041 25.2897 596.989 25.0274 596.99 24.7626C596.99 24.4968 597.043 24.2335 597.144 23.9879C597.246 23.7423 597.395 23.5191 597.583 23.3312C597.771 23.1432 597.995 22.9941 598.24 22.8924C598.486 22.7907 598.749 22.7385 599.015 22.7385C599.28 22.7374 599.542 22.7886 599.787 22.8894C600.032 22.9901 600.254 23.1383 600.441 23.3254C600.629 23.5126 600.777 23.7349 600.878 23.9797C600.979 24.2244 601.03 24.4867 601.029 24.7514C601.029 25.0174 600.977 25.2808 600.875 25.5265C600.773 25.7723 600.624 25.9956 600.436 26.1837C600.248 26.3718 600.025 26.521 599.779 26.6229C599.534 26.7247 599.27 26.7772 599.004 26.7773V26.7767ZM599.015 22.9391C597.983 22.9391 597.203 23.7594 597.203 24.7632C597.203 25.767 597.978 26.5762 599.004 26.5762C600.036 26.5762 600.817 25.7564 600.817 24.752C600.817 23.7482 600.041 22.9391 599.015 22.9391ZM599.462 24.959L600.031 25.7564H599.551L599.039 25.0249H598.598V25.7564H598.195V23.6424H599.138C599.629 23.6424 599.952 23.8941 599.952 24.3169C599.952 24.6638 599.752 24.8755 599.461 24.9578L599.462 24.959ZM599.12 24.0052H598.597V24.6732H599.12C599.382 24.6732 599.538 24.545 599.538 24.338C599.538 24.1205 599.382 24.0046 599.12 24.0046V24.0052ZM496.095 8.56348C485.872 8.56348 477.583 16.9668 477.583 27.1913C477.583 36.7983 484.899 44.5536 494.265 45.7297H497.926C507.291 44.5536 514.608 36.7983 514.608 27.1907C514.608 16.9668 506.319 8.56348 496.096 8.56348H496.095ZM504.585 35.2647C504.506 35.3942 504.403 35.5069 504.28 35.5963C504.158 35.6856 504.019 35.75 503.871 35.7856C503.724 35.8212 503.571 35.8274 503.421 35.8038C503.272 35.7802 503.128 35.7273 502.999 35.6481C498.651 32.9913 493.18 32.3914 486.736 33.8633C486.588 33.8973 486.435 33.9018 486.286 33.8766C486.137 33.8514 485.994 33.797 485.865 33.7165C485.737 33.636 485.626 33.5309 485.538 33.4074C485.45 33.2839 485.388 33.1443 485.354 32.9965C485.32 32.8488 485.316 32.6958 485.341 32.5464C485.366 32.3969 485.421 32.2539 485.501 32.1255C485.582 31.9972 485.687 31.886 485.811 31.7983C485.934 31.7106 486.074 31.6482 486.222 31.6146C493.274 30.0034 499.323 30.6973 504.202 33.6787C504.463 33.8386 504.65 34.0954 504.722 34.3929C504.793 34.6904 504.744 35.0041 504.585 35.2653L504.585 35.2647ZM506.85 30.2239C506.65 30.5499 506.329 30.7831 505.956 30.8722C505.584 30.9613 505.192 30.899 504.866 30.699C499.891 27.6411 492.305 26.7549 486.418 28.542C486.052 28.6526 485.657 28.6135 485.319 28.4333C484.982 28.2531 484.729 27.9465 484.617 27.5806C484.388 26.8161 484.817 26.0122 485.58 25.7811C492.304 23.7406 500.662 24.7285 506.376 28.2392C506.702 28.4396 506.935 28.7612 507.024 29.1333C507.113 29.5055 507.051 29.8977 506.851 30.2239H506.85ZM507.046 24.9749C501.078 21.4313 491.235 21.1055 485.539 22.8344C485.099 22.9676 484.625 22.9207 484.22 22.7041C483.815 22.4875 483.513 22.1189 483.379 21.6794C483.246 21.2399 483.293 20.7655 483.51 20.3606C483.726 19.9556 484.095 19.6533 484.534 19.5201C491.073 17.5354 501.944 17.9188 508.814 21.9958C509.009 22.1118 509.18 22.2652 509.317 22.4472C509.453 22.6293 509.552 22.8364 509.608 23.0567C509.665 23.2771 509.677 23.5064 509.644 23.7314C509.612 23.9565 509.536 24.1731 509.42 24.3686C509.304 24.5644 509.15 24.7353 508.968 24.8717C508.786 25.0081 508.579 25.1073 508.358 25.1636C508.138 25.2198 507.909 25.2321 507.683 25.1996C507.458 25.1671 507.242 25.0906 507.046 24.9743L507.046 24.9749Z" fill="#6B7280"/>
<g clip-path="url(#clip1_8_5143)">
<path d="M756.44 23.2219C754.706 23.2219 753.847 24.5868 753.454 25.4672C753.234 25.9588 753.172 26.3475 752.994 26.3475C752.743 26.3475 752.923 26.0097 752.717 25.2605C752.446 24.2748 751.63 23.2219 749.897 23.2219C748.075 23.2219 747.295 24.7615 746.925 25.6075C746.672 26.1859 746.671 26.3475 746.477 26.3475C746.195 26.3475 746.429 25.8881 746.555 25.348C746.805 24.2846 746.615 23.4719 746.615 23.4719H743.727V34.334H747.669C747.669 34.334 747.669 29.7945 747.669 28.9297C747.669 27.8637 748.115 26.5111 748.88 26.5111C749.763 26.5111 749.94 27.1893 749.94 28.4452C749.94 29.5838 749.94 34.3364 749.94 34.3364H753.898C753.898 34.3364 753.898 29.7693 753.898 28.9297C753.898 27.9809 754.286 26.5111 755.114 26.5111C756.01 26.5111 756.168 27.4639 756.168 28.4452C756.168 29.4265 756.168 34.334 756.168 34.334H760.056C760.056 34.334 760.056 30.0302 760.056 27.9465C760.056 25.1118 759.057 23.2219 756.44 23.2219Z" fill="#6B7280"/>
<path d="M823.365 23.2219C821.631 23.2219 820.773 24.5868 820.379 25.4672C820.159 25.9588 820.098 26.3475 819.919 26.3475C819.668 26.3475 819.836 25.9184 819.642 25.2605C819.353 24.28 818.635 23.2219 816.823 23.2219C815 23.2219 814.22 24.7615 813.85 25.6075C813.597 26.1859 813.597 26.3475 813.402 26.3475C813.12 26.3475 813.354 25.8881 813.481 25.348C813.731 24.2846 813.541 23.4719 813.541 23.4719H810.652V34.334H814.595C814.595 34.334 814.595 29.7945 814.595 28.9297C814.595 27.8637 815.041 26.5111 815.805 26.5111C816.688 26.5111 816.865 27.1893 816.865 28.4452C816.865 29.5838 816.865 34.3364 816.865 34.3364H820.824C820.824 34.3364 820.824 29.7693 820.824 28.9297C820.824 27.9809 821.211 26.5111 822.04 26.5111C822.935 26.5111 823.094 27.4639 823.094 28.4452C823.094 29.4265 823.094 34.334 823.094 34.334H826.981C826.981 34.334 826.981 30.0302 826.981 27.9465C826.981 25.1118 825.982 23.2219 823.365 23.2219Z" fill="#6B7280"/>
<path d="M765.829 31.7953C764.886 32.0131 764.397 31.7227 764.397 31.0977C764.397 30.2416 765.282 29.8988 766.546 29.8988C767.103 29.8988 767.627 29.947 767.627 29.947C767.627 30.3134 766.832 31.5638 765.829 31.7953ZM766.788 23.2243C763.768 23.2243 761.601 24.3347 761.601 24.3347V27.5987C761.601 27.5987 763.994 26.2227 765.936 26.2227C767.485 26.2227 767.676 27.0585 767.605 27.7522C767.605 27.7522 767.158 27.6339 765.794 27.6339C762.581 27.6339 760.958 29.0944 760.958 31.4365C760.958 33.6579 762.782 34.5866 764.318 34.5866C766.559 34.5866 767.545 33.0803 767.847 32.3657C768.058 31.8699 768.096 31.5358 768.285 31.5358C768.5 31.5358 768.427 31.7754 768.417 32.2689C768.399 33.133 768.439 33.7862 768.576 34.3364H771.548V28.9908C771.548 25.6532 770.367 23.2243 766.788 23.2243Z" fill="#6B7280"/>
<path d="M778.043 34.3364H781.986V20.1837H778.043V34.3364Z" fill="#6B7280"/>
<path d="M786.326 28.9053C786.326 27.9287 787.234 27.0401 788.899 27.0401C790.714 27.0401 792.174 27.914 792.502 28.1124V24.3347C792.502 24.3347 791.348 23.2243 788.514 23.2243C785.526 23.2243 783.037 24.9728 783.037 28.7363C783.037 32.4997 785.295 34.5866 788.506 34.5866C791.013 34.5866 792.508 33.2088 792.508 33.2088V29.6206C792.035 29.8853 790.717 30.7997 788.917 30.7997C787.012 30.7997 786.326 29.923 786.326 28.9053Z" fill="#6B7280"/>
<path d="M800.489 23.2243C798.206 23.2243 797.338 25.3873 797.163 25.763C796.987 26.1384 796.901 26.3545 796.757 26.3499C796.508 26.3418 796.682 25.8889 796.779 25.5955C796.962 25.0415 797.351 23.5877 797.351 21.8011C797.351 20.5892 797.188 20.1836 797.188 20.1836H793.784V34.3364H797.727C797.727 34.3364 797.727 29.8123 797.727 28.9322C797.727 28.0518 798.078 26.5135 799.071 26.5135C799.894 26.5135 800.152 27.1231 800.152 28.3507C800.152 29.5782 800.152 34.3364 800.152 34.3364H804.095C804.095 34.3364 804.095 31.026 804.095 28.587C804.095 25.7987 803.632 23.2243 800.489 23.2243Z" fill="#6B7280"/>
<path d="M805.376 23.4868V34.3364H809.319V23.4868C809.319 23.4868 808.656 23.8744 807.352 23.8744C806.047 23.8744 805.376 23.4868 805.376 23.4868Z" fill="#6B7280"/>
<path d="M807.336 20.0737C806.003 20.0737 804.922 20.779 804.922 21.6491C804.922 22.519 806.003 23.2243 807.336 23.2243C808.669 23.2243 809.75 22.519 809.75 21.6491C809.75 20.779 808.669 20.0737 807.336 20.0737Z" fill="#6B7280"/>
<path d="M772.824 23.4868V34.3364H776.767V23.4868C776.767 23.4868 776.104 23.8744 774.8 23.8744C773.495 23.8744 772.824 23.4868 772.824 23.4868Z" fill="#6B7280"/>
<path d="M774.784 20.0737C773.451 20.0737 772.371 20.779 772.371 21.6491C772.371 22.519 773.451 23.2243 774.784 23.2243C776.117 23.2243 777.198 22.519 777.198 21.6491C777.198 20.779 776.117 20.0737 774.784 20.0737Z" fill="#6B7280"/>
<path d="M833.733 32.0022C832.829 32.0022 832.163 30.8554 832.163 29.2576C832.163 27.7058 832.847 26.5135 833.702 26.5135C834.799 26.5135 835.267 27.5197 835.267 29.2576C835.267 31.0654 834.836 32.0022 833.733 32.0022ZM834.815 23.2219C832.788 23.2219 831.859 24.7418 831.456 25.6075C831.189 26.1797 831.202 26.3475 831.008 26.3475C830.726 26.3475 830.959 25.8881 831.086 25.348C831.336 24.2846 831.146 23.4719 831.146 23.4719H828.257V37.3339H832.2C832.2 37.3339 832.2 35.0656 832.2 32.939C832.667 33.7305 833.531 34.5762 834.864 34.5762C837.715 34.5762 839.15 32.1639 839.15 28.9045C839.15 25.2103 837.432 23.2219 834.815 23.2219Z" fill="#6B7280"/>
<path d="M729.797 26.5028C730.062 26.4712 730.316 26.4697 730.55 26.5028C730.685 26.193 730.708 25.6589 730.587 25.0772C730.406 24.2127 730.162 23.6895 729.656 23.7709C729.151 23.8523 729.133 24.4787 729.313 25.3433C729.415 25.8295 729.596 26.2452 729.797 26.5028Z" fill="#6B7280"/>
<path d="M725.46 27.1869C725.821 27.3456 726.044 27.4507 726.13 27.3588C726.186 27.3015 726.17 27.1922 726.083 27.0512C725.905 26.7599 725.538 26.4647 725.149 26.2988C724.352 25.956 723.403 26.0701 722.67 26.5964C722.429 26.7736 722.199 27.019 722.232 27.1681C722.243 27.2163 722.279 27.2526 722.364 27.2645C722.563 27.2873 723.26 26.9349 724.063 26.8859C724.629 26.8512 725.098 27.0284 725.46 27.1869Z" fill="#6B7280"/>
<path d="M724.733 27.6018C724.262 27.6761 724.003 27.8314 723.836 27.9757C723.694 28.1 723.606 28.2374 723.606 28.3341C723.607 28.3801 723.627 28.4066 723.642 28.42C723.664 28.4388 723.689 28.4493 723.72 28.4493C723.826 28.4493 724.064 28.3537 724.064 28.3537C724.72 28.1192 725.152 28.1477 725.58 28.1965C725.817 28.223 725.928 28.2377 725.98 28.1566C725.996 28.1333 726.014 28.0829 725.967 28.0061C725.857 27.8272 725.381 27.5248 724.733 27.6018" fill="#6B7280"/>
<path d="M728.332 29.1248C728.652 29.2819 729.004 29.2202 729.119 28.9871C729.233 28.7541 729.067 28.4378 728.747 28.2806C728.428 28.1237 728.076 28.1852 727.961 28.4183C727.846 28.6515 728.013 28.9676 728.332 29.1248Z" fill="#6B7280"/>
<path d="M730.387 27.3291C730.128 27.3247 729.912 27.6098 729.906 27.9659C729.9 28.3221 730.106 28.6143 730.366 28.6187C730.625 28.6232 730.841 28.338 730.847 27.9819C730.853 27.6257 730.647 27.3334 730.387 27.3291Z" fill="#6B7280"/>
<path d="M712.945 33.7502C712.881 33.6692 712.775 33.6939 712.672 33.7178C712.6 33.7346 712.519 33.7534 712.43 33.752C712.239 33.7482 712.077 33.6667 711.986 33.5271C711.868 33.3455 711.875 33.0745 712.005 32.7646C712.023 32.7226 712.043 32.6762 712.066 32.6257C712.274 32.1584 712.623 31.3763 712.232 30.6311C711.937 30.0702 711.457 29.7208 710.879 29.6476C710.324 29.5773 709.754 29.7828 709.389 30.1846C708.815 30.8184 708.725 31.6808 708.836 31.9856C708.877 32.0971 708.941 32.128 708.987 32.1344C709.085 32.1474 709.229 32.0764 709.32 31.8327C709.326 31.8153 709.335 31.7881 709.346 31.7536C709.386 31.6248 709.461 31.385 709.584 31.1928C709.733 30.961 709.964 30.8015 710.235 30.7433C710.511 30.6842 710.794 30.7369 711.03 30.8918C711.432 31.155 711.587 31.6481 711.416 32.1186C711.327 32.362 711.183 32.8272 711.214 33.2096C711.279 33.9833 711.755 34.2942 712.182 34.3272C712.598 34.3427 712.889 34.1095 712.962 33.9388C713.005 33.838 712.969 33.7766 712.945 33.7502" fill="#6B7280"/>
<path d="M716.898 19.5382C718.254 17.9713 719.923 16.6091 721.418 15.8442C721.47 15.8176 721.525 15.8738 721.497 15.9245C721.378 16.1396 721.15 16.6 721.077 16.9493C721.066 17.0037 721.125 17.0446 721.171 17.0133C722.101 16.3792 723.72 15.6997 725.139 15.6124C725.2 15.6086 725.23 15.6868 725.181 15.724C724.965 15.8897 724.729 16.1188 724.557 16.3506C724.527 16.39 724.555 16.4468 724.604 16.4471C725.601 16.4542 727.006 16.803 727.922 17.3167C727.984 17.3514 727.939 17.4714 727.87 17.4556C726.485 17.1381 724.216 16.8971 721.86 17.4717C719.757 17.9848 718.151 18.7769 716.98 19.6287C716.921 19.6719 716.85 19.5937 716.898 19.5382L716.898 19.5382ZM723.651 34.7199C723.651 34.7202 723.651 34.7207 723.652 34.7207C723.652 34.7211 723.652 34.722 723.652 34.7224C723.652 34.7216 723.652 34.7207 723.651 34.7199ZM729.243 35.38C729.283 35.3631 729.311 35.3172 729.306 35.2717C729.301 35.2156 729.251 35.1749 729.195 35.1806C729.195 35.1806 726.301 35.6089 723.567 34.6083C723.865 33.6404 724.657 33.9898 725.853 34.0865C728.011 34.2151 729.944 33.9 731.373 33.4898C732.611 33.1346 734.237 32.434 735.5 31.4371C735.926 32.373 736.076 33.4027 736.076 33.4027C736.076 33.4027 736.406 33.3439 736.682 33.5134C736.942 33.6736 737.133 34.0067 737.002 34.8681C736.737 36.4772 736.053 37.7831 734.903 38.9846C734.204 39.7378 733.354 40.3927 732.382 40.8689C731.866 41.14 731.316 41.3746 730.736 41.5641C726.402 42.9794 721.967 41.4235 720.537 38.0821C720.423 37.8309 720.326 37.5679 720.25 37.2928C719.641 35.0909 720.158 32.4492 721.775 30.7863C721.775 30.7862 721.775 30.7855 721.775 30.7855C721.875 30.6796 721.976 30.5549 721.976 30.398C721.976 30.2668 721.893 30.1283 721.821 30.0301C721.255 29.2096 719.295 27.8113 719.689 25.1053C719.971 23.1613 721.671 21.7922 723.256 21.8733C723.39 21.8803 723.525 21.8885 723.658 21.8963C724.345 21.9371 724.944 22.0252 725.51 22.0488C726.456 22.0897 727.307 21.9521 728.315 21.1123C728.655 20.8289 728.928 20.5833 729.389 20.5052C729.438 20.4969 729.558 20.4536 729.799 20.465C730.045 20.478 730.28 20.5457 730.49 20.6858C731.298 21.2235 731.413 22.5259 731.455 23.4787C731.479 24.0225 731.545 25.3383 731.567 25.716C731.618 26.5797 731.845 26.7014 732.305 26.8527C732.563 26.9378 732.803 27.0011 733.156 27.1004C734.226 27.4007 734.86 27.7054 735.26 28.0968C735.498 28.3413 735.609 28.6013 735.643 28.8491C735.77 29.7692 734.929 30.906 732.704 31.9388C730.272 33.0677 727.321 33.3535 725.282 33.1265C725.126 33.1092 724.57 33.0462 724.568 33.0458C722.937 32.8262 722.007 34.9338 722.985 36.3777C723.616 37.3083 725.334 37.914 727.053 37.9143C730.995 37.9147 734.025 36.2315 735.151 34.7779C735.185 34.7345 735.188 34.7297 735.242 34.6494C735.297 34.5659 735.251 34.5197 735.182 34.5671C734.261 35.197 730.172 37.6982 725.797 36.9457C725.797 36.9457 725.266 36.8584 724.781 36.6696C724.395 36.5197 723.588 36.1483 723.49 35.3204C727.02 36.4121 729.243 35.38 729.243 35.38V35.38ZM709.853 26.9904C708.625 27.2292 707.543 27.925 706.882 28.8861C706.486 28.5563 705.749 27.9177 705.619 27.6689C704.563 25.663 706.772 21.763 708.315 19.5605C712.13 14.1174 718.104 9.99744 720.869 10.745C721.319 10.8722 722.808 12.5986 722.808 12.5986C722.808 12.5986 720.043 14.1324 717.48 16.2704C714.025 18.9301 711.416 22.7957 709.853 26.9904ZM711.916 36.1952C711.73 36.2269 711.541 36.2395 711.35 36.2349C709.502 36.1853 707.507 34.5222 707.309 32.55C707.089 30.3701 708.203 28.6924 710.175 28.2945C710.411 28.2471 710.696 28.2196 711.003 28.2356C712.108 28.2962 713.737 29.1446 714.109 31.5518C714.438 33.6838 713.915 35.8542 711.916 36.1951V36.1952ZM736.94 32.335C736.924 32.2791 736.821 31.9023 736.679 31.4482C736.538 30.9939 736.391 30.6744 736.391 30.6744C736.959 29.8238 736.969 29.0631 736.894 28.6322C736.813 28.0982 736.591 27.6431 736.143 27.1727C735.695 26.7023 734.778 26.2205 733.49 25.8588C733.343 25.8174 732.857 25.6841 732.814 25.6712C732.811 25.6433 732.779 24.0779 732.749 23.4059C732.728 22.9201 732.686 22.1617 732.451 21.4148C732.171 20.4037 731.682 19.5189 731.072 18.9529C732.755 17.2083 733.806 15.2864 733.803 13.6377C733.799 10.4669 729.905 9.50762 725.106 11.4946C725.101 11.4967 724.096 11.9226 724.089 11.9262C724.085 11.9219 722.251 10.1228 722.223 10.0987C716.752 5.32656 699.646 24.3405 705.115 28.9584L706.31 29.971C706 30.7742 705.879 31.6944 705.978 32.6839C706.106 33.9548 706.761 35.1731 707.824 36.1143C708.833 37.0081 710.159 37.5737 711.446 37.5727C713.574 42.4773 718.437 45.4861 724.139 45.6554C730.255 45.8371 735.389 42.9671 737.54 37.8119C737.681 37.45 738.278 35.8198 738.278 34.3808C738.278 32.9344 737.461 32.335 736.94 32.335Z" fill="#6B7280"/>
</g>
<path fill-rule="evenodd" clip-rule="evenodd" d="M996.588 19.5782C996.588 19.9886 996.467 20.3899 996.238 20.7312C996.01 21.0724 995.686 21.3384 995.307 21.4955C994.928 21.6526 994.511 21.6937 994.108 21.6136C993.705 21.5335 993.336 21.3359 993.045 21.0456C992.755 20.7554 992.558 20.3856 992.477 19.983C992.397 19.5805 992.438 19.1632 992.596 18.784C992.753 18.4048 993.019 18.0806 993.36 17.8526C993.701 17.6245 994.102 17.5028 994.513 17.5028C994.786 17.502 995.056 17.5551 995.308 17.6591C995.56 17.7631 995.789 17.9159 995.982 18.1088C996.175 18.3017 996.328 18.5308 996.432 18.783C996.536 19.0351 996.589 19.3054 996.588 19.5782ZM988.027 23.749V24.2623C987.635 23.8386 987.156 23.5048 986.623 23.284C986.09 23.0632 985.515 22.9607 984.938 22.9836C984.112 22.9747 983.293 23.1333 982.529 23.4499C981.766 23.7665 981.075 24.2345 980.498 24.8256C979.92 25.4168 979.469 26.1188 979.17 26.8893C978.872 27.6598 978.733 28.4828 978.761 29.3086C978.732 30.1344 978.87 30.9575 979.168 31.7283C979.465 32.4992 979.916 33.2017 980.493 33.7934C981.07 34.3851 981.76 34.8538 982.523 35.1712C983.286 35.4886 984.106 35.6481 984.932 35.64C985.512 35.6667 986.09 35.5628 986.625 35.3361C987.159 35.1094 987.636 34.7656 988.02 34.3301V34.8737C988.019 34.9323 988.03 34.9905 988.052 35.0448C988.074 35.0991 988.107 35.1485 988.148 35.19C988.19 35.2314 988.239 35.2641 988.294 35.2862C988.348 35.3082 988.406 35.3191 988.465 35.3182H991.053V23.2833H988.487C988.37 23.2866 988.259 23.3344 988.176 23.4171C988.093 23.4998 988.045 23.611 988.042 23.7279L988.027 23.749ZM988.027 31.4453C987.73 31.8536 987.341 32.1854 986.891 32.4132C986.44 32.641 985.942 32.7583 985.438 32.7552C983.394 32.7552 981.831 31.4765 981.831 29.3086C981.831 27.1407 983.394 25.8619 985.438 25.8619C985.941 25.8657 986.437 25.9859 986.886 26.2132C987.335 26.4404 987.725 26.7685 988.027 27.1718V31.4527V31.4453ZM992.977 23.3035H996.066V35.3118H992.977V23.2833V23.3035ZM1038.78 22.9827C1038.2 22.9598 1037.63 23.0623 1037.1 23.2831C1036.56 23.5039 1036.08 23.8376 1035.69 24.2614V17.5221H1032.6V35.31H1035.19C1035.31 35.3068 1035.42 35.2589 1035.5 35.1762C1035.58 35.0935 1035.63 34.9823 1035.63 34.8654V34.3218C1036.02 34.7524 1036.5 35.0928 1037.03 35.3192C1037.56 35.5455 1038.14 35.6522 1038.72 35.6317C1039.54 35.6381 1040.36 35.4777 1041.12 35.1602C1041.88 34.8427 1042.57 34.3746 1043.15 33.784C1043.73 33.1934 1044.18 32.4924 1044.48 31.7231C1044.78 30.9538 1044.92 30.1319 1044.89 29.3067C1044.92 28.4814 1044.78 27.6592 1044.48 26.8895C1044.18 26.1198 1043.73 25.4186 1043.15 24.8278C1042.58 24.237 1041.89 23.769 1041.12 23.4517C1040.36 23.1345 1039.54 22.9746 1038.72 22.9817L1038.78 22.9827ZM1038.26 32.725C1037.75 32.7321 1037.25 32.6167 1036.8 32.3886C1036.35 32.1604 1035.96 31.8264 1035.67 31.4151V27.1333C1035.98 26.7409 1036.37 26.4205 1036.82 26.1944C1037.27 25.9683 1037.76 25.8417 1038.26 25.8234C1040.3 25.8234 1041.87 27.1022 1041.87 29.2701C1041.87 31.438 1040.3 32.7167 1038.26 32.7167V32.725ZM1031.04 28.1912V35.3439H1027.95V28.5487C1027.95 26.5659 1027.33 25.7693 1025.58 25.7693C1025.11 25.7857 1024.65 25.8989 1024.22 26.1019C1023.8 26.3049 1023.42 26.5933 1023.11 26.9491V35.3127H1020.02V23.2833H1022.45C1022.57 23.2866 1022.68 23.3344 1022.76 23.4171C1022.84 23.4998 1022.89 23.611 1022.89 23.7279V24.2412C1023.32 23.8168 1023.83 23.4844 1024.39 23.2644C1024.95 23.0445 1025.55 22.9417 1026.15 22.9625C1027.37 22.9173 1028.57 23.3265 1029.5 24.1111C1030.59 25.0067 1031 26.1552 1031 28.1692L1031.04 28.1912ZM1012.61 22.9845C1012.03 22.9617 1011.46 23.0642 1010.93 23.2849C1010.39 23.5057 1009.92 23.8395 1009.52 24.2632V17.5239H1006.43V35.31H1009.02C1009.14 35.3068 1009.25 35.2589 1009.33 35.1762C1009.42 35.0935 1009.46 34.9823 1009.47 34.8654V34.3218C1009.85 34.7532 1010.33 35.0942 1010.87 35.3206C1011.4 35.5469 1011.98 35.6532 1012.56 35.6317C1013.38 35.6381 1014.2 35.4777 1014.96 35.1602C1015.72 34.8427 1016.41 34.3746 1016.99 33.784C1017.57 33.1934 1018.02 32.4924 1018.32 31.7231C1018.62 30.9538 1018.76 30.1319 1018.73 29.3067C1018.77 28.48 1018.63 27.6555 1018.33 26.8834C1018.03 26.1113 1017.58 25.4079 1017 24.816C1016.43 24.2241 1015.73 23.7562 1014.97 23.4409C1014.2 23.1255 1013.38 22.9693 1012.56 22.9817L1012.61 22.9845ZM1012.1 32.725C1011.59 32.7321 1011.09 32.6167 1010.64 32.3886C1010.19 32.1604 1009.8 31.8264 1009.51 31.4151V27.1333C1009.82 26.7409 1010.21 26.4205 1010.66 26.1944C1011.11 25.9683 1011.6 25.8417 1012.1 25.8234C1014.14 25.8234 1015.7 27.1022 1015.7 29.2701C1015.7 31.438 1014.14 32.7167 1012.1 32.7167V32.725ZM1003.77 22.9808C1004.25 22.9658 1004.72 23.0198 1005.18 23.1412V25.9829C1005.18 25.9829 1002.61 25.1368 1001.03 26.9399V35.3412H997.941V23.2833H1000.53C1000.65 23.2866 1000.76 23.3344 1000.84 23.4171C1000.92 23.4998 1000.97 23.611 1000.97 23.7279V24.2412C1001.71 23.4803 1002.7 23.0236 1003.75 22.9625L1003.77 22.9808ZM971.928 34.2237L971.446 33.0752L970.711 31.4435L970.68 31.4123C968.446 26.5439 966.093 21.7306 963.625 16.9767L963.526 16.7933L962.765 15.2625C962.45 14.6357 962.065 14.0471 961.617 13.508C961.128 12.8929 960.506 12.3974 959.798 12.0591C959.089 11.7209 958.312 11.549 957.527 11.5564C956.747 11.559 955.977 11.7317 955.271 12.0624C954.565 12.3931 953.939 12.874 953.438 13.4713C953 14.0183 952.616 14.6058 952.289 15.2258L951.425 16.918C948.955 21.7122 946.569 26.5613 944.365 31.3537L944.334 31.4151C944.15 31.9403 943.889 32.4784 943.63 33.0522C943.469 33.4024 943.308 33.7853 943.148 34.2008C942.74 35.3011 942.608 36.4846 942.764 37.6475C942.936 38.8154 943.409 39.9183 944.137 40.8477C944.865 41.7771 945.822 42.5008 946.915 42.9477C947.734 43.2921 948.615 43.4664 949.504 43.4601C949.781 43.4554 950.057 43.4349 950.331 43.3987C951.458 43.255 952.545 42.8852 953.525 42.3115C955.014 41.4233 956.351 40.3013 957.484 38.9886C958.624 40.2941 959.96 41.415 961.443 42.3115C962.424 42.8853 963.51 43.2551 964.637 43.3987C964.911 43.4349 965.188 43.4554 965.465 43.4601C966.354 43.4694 967.235 43.2949 968.053 42.9477C969.146 42.5008 970.103 41.7771 970.831 40.8477C971.559 39.9183 972.032 38.8154 972.204 37.6475C972.439 36.5048 972.338 35.3185 971.913 34.232L971.928 34.2237ZM957.529 35.8857C955.806 33.7113 954.687 31.6727 954.304 29.9429C954.148 29.3064 954.114 28.6459 954.205 27.9968C954.268 27.5161 954.444 27.057 954.718 26.6567C955.038 26.2126 955.461 25.8526 955.95 25.6074C956.439 25.3622 956.981 25.2391 957.528 25.2487C958.077 25.2276 958.622 25.345 959.113 25.5901C959.604 25.8352 960.026 26.2001 960.339 26.6512C960.612 27.0515 960.788 27.5106 960.851 27.9913C960.943 28.6404 960.909 29.301 960.752 29.9374C960.369 31.6296 959.252 33.6435 957.527 35.8802L957.529 35.8857ZM970.273 37.3862C970.152 38.2039 969.821 38.976 969.31 39.6261C968.8 40.2761 968.129 40.7815 967.363 41.0923C966.599 41.4153 965.765 41.5366 964.941 41.4443C964.084 41.3383 963.258 41.0565 962.514 40.6166C961.143 39.7891 959.915 38.7463 958.876 37.5283C960.982 34.9397 962.261 32.5783 962.742 30.4682C962.95 29.5779 963.004 28.6587 962.903 27.7502C962.784 26.9691 962.488 26.2253 962.038 25.5759C961.532 24.8536 960.856 24.2668 960.07 23.8671C959.283 23.4675 958.411 23.2673 957.529 23.2842C956.652 23.273 955.785 23.4732 955.001 23.8677C954.217 24.2623 953.54 24.8397 953.026 25.5512C952.576 26.2006 952.281 26.9443 952.162 27.7255C952.027 28.6328 952.082 29.5583 952.322 30.4434C952.805 32.5499 954.114 34.9461 956.189 37.5347C955.157 38.76 953.927 39.8039 952.551 40.623C951.807 41.0724 950.978 41.3627 950.117 41.4755C949.294 41.5669 948.461 41.4568 947.69 41.1547C946.924 40.8439 946.253 40.3384 945.742 39.6884C945.232 39.0383 944.9 38.2662 944.78 37.4486C944.679 36.6137 944.779 35.7668 945.071 34.9782C945.17 34.6573 945.324 34.3603 945.483 33.9588C945.706 33.4455 945.965 32.9028 946.218 32.3592L946.25 32.2978C948.455 27.5312 950.815 22.6866 953.28 17.9547L953.372 17.7256L954.138 16.2552C954.387 15.7484 954.696 15.2735 955.059 14.8408C955.374 14.4708 955.765 14.1737 956.206 13.9699C956.647 13.7661 957.127 13.6606 957.613 13.6606C958.099 13.6606 958.579 13.7661 959.02 13.9699C959.461 14.1737 959.852 14.4708 960.167 14.8408C960.512 15.2724 960.804 15.7432 961.038 16.2433L961.804 17.7137L961.896 17.897C964.323 22.66 966.696 27.5082 968.895 32.2703V32.3015C969.148 32.8148 969.377 33.3887 969.63 33.9011C969.79 34.2842 969.951 34.6051 970.043 34.9204C970.308 35.7154 970.384 36.5612 970.265 37.3908L970.273 37.3862Z" fill="#6B7280"/>
<g clip-path="url(#clip2_8_5143)">
<path fill-rule="evenodd" clip-rule="evenodd" d="M1168.75 14.3773V29.5582C1168.75 34.6275 1166.51 36.7328 1161.24 36.7328C1155.98 36.7328 1153.73 34.6275 1153.73 29.5582V13.7123H1148.66C1148.22 13.7123 1148 13.9343 1148 14.3773V29.8073C1148 38.2847 1153.4 41.2488 1161.24 41.2488C1169.08 41.2488 1174.48 38.2847 1174.48 29.8073V13.7123H1169.41C1168.97 13.7123 1168.75 13.9343 1168.75 14.3773Z" fill="#6B7280"/>
<path fill-rule="evenodd" clip-rule="evenodd" d="M1242.24 18.1172C1242.66 18.1172 1242.85 17.9788 1242.99 17.6737L1244.46 14.0446C1244.54 13.8235 1244.46 13.7123 1244.23 13.7123H1223.82C1221.91 13.7123 1221.19 14.2941 1221.19 15.596V39.1707C1221.19 40.2791 1221.74 40.7778 1223.21 40.7778H1242.24C1242.66 40.7778 1242.85 40.639 1242.99 40.3347L1244.46 36.7052C1244.54 36.4837 1244.46 36.3729 1244.23 36.3729H1226.81V31.5802C1226.81 29.918 1227.72 29.1699 1230.19 29.1699H1237.75C1238.17 29.1699 1238.36 29.032 1238.5 28.7273L1239.91 25.2366C1240 25.0146 1239.91 24.9043 1239.69 24.9043H1226.81V18.1172H1242.24Z" fill="#6B7280"/>
<path fill-rule="evenodd" clip-rule="evenodd" d="M1200.98 36.4285H1190.98V31.4695C1190.98 29.8073 1191.89 29.0596 1194.36 29.0596H1200.98C1204.16 29.0596 1205.05 30.2783 1205.05 32.7719C1205.05 35.2649 1204.16 36.4285 1200.98 36.4285ZM1190.98 18.0615H1199.93C1202.92 18.0615 1203.75 19.1885 1203.75 21.5243C1203.75 23.8605 1202.92 24.9875 1199.93 24.9875H1190.98V18.0615ZM1206.3 26.5109C1208.51 25.3473 1209.43 23.1589 1209.43 20.5827C1209.43 14.5988 1204.55 13.7123 1199.51 13.7123H1187.99C1186.07 13.7123 1185.35 14.2941 1185.35 15.596V39.1707C1185.35 40.2791 1185.91 40.7778 1187.38 40.7778H1201.56C1206.91 40.7778 1210.73 38.7001 1210.73 33.2981C1210.73 30.0568 1209.34 27.3142 1206.3 26.5109Z" fill="#6B7280"/>
<path fill-rule="evenodd" clip-rule="evenodd" d="M1269.26 26.2614H1259.84V18.062H1269.26C1272.78 18.062 1273.56 19.4191 1273.56 22.1617C1273.56 24.9319 1272.78 26.2614 1269.26 26.2614ZM1279.84 40.3067L1273.78 29.8905C1276.8 29.1152 1279.23 27.1207 1279.23 22.0509C1279.23 15.4857 1275.16 13.7123 1268.43 13.7123H1256.85C1254.94 13.7123 1254.22 14.2941 1254.22 15.596V40.1128C1254.22 40.5558 1254.44 40.7778 1254.88 40.7778H1259.84V32.8826C1259.84 31.2204 1260.76 30.4723 1263.22 30.4723H1268.21L1273.69 40.3347C1273.86 40.6114 1274.03 40.7778 1274.44 40.7778H1279.59C1279.96 40.7778 1279.96 40.4726 1279.84 40.3067Z" fill="#6B7280"/>
</g>
<defs>
<clipPath id="clip0_8_5143">
<rect width="150" height="32.8125" fill="white" transform="translate(227.2 11.0938)"/>
</clipPath>
<clipPath id="clip1_8_5143">
<rect width="136" height="37.2277" fill="white" transform="translate(703.6 8.88617)"/>
</clipPath>
<clipPath id="clip2_8_5143">
<rect width="132" height="27.5753" fill="white" transform="translate(1148 13.7123)"/>
</clipPath>
</defs>
</svg>
